<svg xmlns="http://www.w3.org/2000/svg" version="1.1" xmlns:xlink="http://www.w3.org/1999/xlink" xmlns:svgjs="http://svgjs.dev/svgjs" width="1000" height="373" viewBox="0 0 1000 373"><g transform="matrix(1,0,0,1,-0.6060606060606233,-0.019218519730600292)"><svg viewBox="0 0 396 148" data-background-color="#ffffff" preserveAspectRatio="xMidYMid meet" height="373" width="1000" xmlns="http://www.w3.org/2000/svg" xmlns:xlink="http://www.w3.org/1999/xlink"><g id="tight-bounds" transform="matrix(1,0,0,1,0.2400000000000091,0.007626042128265453)"><svg viewBox="0 0 395.52 147.98473839798112" height="147.98473839798112" width="395.52"><g><svg viewBox="0 0 788.13397752584 294.882181651299" height="147.98473839798112" width="395.52"><g transform="matrix(1,0,0,1,392.6139775258401,92.44410357188357)"><svg viewBox="0 0 395.52 109.99397450753185" height="109.99397450753185" width="395.52"><g id="textblocktransform"><svg viewBox="0 0 395.52 109.99397450753185" height="109.99397450753185" width="395.52" id="textblock"><g><svg viewBox="0 0 395.52 109.99397450753185" height="109.99397450753185" width="395.52"><g transform="matrix(1,0,0,1,0,0)"><svg width="395.52" viewBox="2.1500000953674316 -35.5 129.44000244140625 36" height="109.99397450753185" data-palette-color="#010c80"><path d="M8-14.2L3.55-14.2Q2.8-14.2 2.75-14.45 2.7-14.7 2.7-15.3L2.7-15.3 2.7-34.05Q2.7-34.2 2.73-34.6 2.75-35 3.3-35L3.3-35 7.95-35Q11.1-35 13.15-33.98 15.2-32.95 16.18-30.78 17.15-28.6 17.15-25.1L17.15-25.1Q17.15-22 16.43-19.93 15.7-17.85 14.43-16.6 13.15-15.35 11.5-14.78 9.85-14.2 8-14.2L8-14.2ZM2.15 0L2.15 0 2.15-34.2Q2.15-34.2 2.27-34.6 2.4-35 3-35L3-35 5.4-35Q6-35 6.1-34.6 6.2-34.2 6.2-34.2L6.2-34.2 6.2-0.8Q6.2-0.4 6.03-0.25 5.85-0.1 5-0.05 4.15 0 2.15 0ZM15.45 0.1L15.45 0.1Q15 0.1 14.38 0.08 13.75 0.05 13.05 0L13.05 0Q12.8-4.3 12.03-7.23 11.25-10.15 10.38-11.88 9.5-13.6 8.85-14.35 8.2-15.1 8.2-15.1L8.2-15.1Q8.2-15.1 8.1-15.4 8-15.7 8.5-16L8.5-16 10.7-17.2Q11.3-17.2 11.55-16.75L11.55-16.75Q11.55-16.75 12.35-15.85 13.15-14.95 14.25-13.03 15.35-11.1 16.3-8.1 17.25-5.1 17.5-0.9L17.5-0.9Q17.5-0.35 17.2-0.13 16.9 0.1 15.45 0.1ZM6.1-31.45L6.1-17.95 8.4-17.95Q9.8-17.95 10.73-18.68 11.65-19.4 12.15-21.03 12.65-22.65 12.65-25.3L12.65-25.3Q12.65-27.2 12.3-28.6 11.95-30 11.08-30.73 10.2-31.45 8.7-31.45L8.7-31.45 6.1-31.45ZM21.4 0.1L21.4 0.1Q21 0.1 20.3 0.05 19.6 0 18.85-0.05L18.85-0.05 27.75-34.45Q27.9-35.15 29.3-35.15L29.3-35.15Q29.8-35.15 30.32-35.1 30.85-35.05 31.2-35L31.2-35 40.15-0.75Q40.25-0.35 39.92-0.13 39.6 0.1 38.4 0.1L38.4 0.1Q37.95 0.1 37.37 0.08 36.8 0.05 36 0L36 0 31.3-19.7Q30.9-21.4 30.55-23.15 30.2-24.9 29.92-26.53 29.65-28.15 29.55-29.35L29.55-29.35Q29.45-28.15 29.17-26.53 28.9-24.9 28.55-23.15 28.2-21.4 27.75-19.7L27.75-19.7 23.3-0.7Q23.2-0.3 22.9-0.1 22.6 0.1 21.4 0.1ZM35.95-8.9L24-8.9 24-12.6 35.95-12.6 35.95-8.9ZM46.55 0.45L46.55 0.45Q44.55 0.45 43.4 0.03 42.25-0.4 41.77-1.07 41.3-1.75 41.3-2.5L41.3-2.5Q41.3-3.3 41.52-3.88 41.75-4.45 41.9-4.8L41.9-4.8Q42.6-4.2 43.7-3.68 44.8-3.15 46.05-3.15L46.05-3.15Q47.5-3.15 48.2-3.85 48.9-4.55 49.1-5.88 49.3-7.2 49.3-9.15L49.3-9.15 49.3-33.15Q49.3-34.1 49.47-34.48 49.65-34.85 50.5-34.93 51.35-35 53.4-35L53.4-35 53.4-8.25Q53.4-6.4 53.1-4.8 52.8-3.2 52.05-2.02 51.3-0.85 49.97-0.2 48.65 0.45 46.55 0.45ZM66.69 0.5L66.69 0.5Q65.24 0.5 63.99 0.15 62.74-0.2 61.72-1.15 60.69-2.1 59.94-3.93 59.19-5.75 58.79-8.72 58.39-11.7 58.39-16.05L58.39-16.05Q58.39-21.2 58.97-24.68 59.54-28.15 60.54-30.28 61.54-32.4 62.82-33.55 64.09-34.7 65.49-35.1 66.89-35.5 68.24-35.5L68.24-35.5Q70.09-35.5 71.12-35.08 72.14-34.65 72.54-34.02 72.94-33.4 72.94-32.75L72.94-32.75Q72.94-32.05 72.74-31.4 72.54-30.75 72.29-30.3L72.29-30.3Q72.04-30.5 71.57-30.78 71.09-31.05 70.44-31.28 69.79-31.5 69.04-31.5L69.04-31.5Q68.09-31.5 67.17-31.18 66.24-30.85 65.42-29.93 64.59-29 63.99-27.3 63.39-25.6 63.02-22.9 62.64-20.2 62.64-16.25L62.64-16.25Q62.64-12.45 63.02-10.05 63.39-7.65 64.04-6.33 64.69-5 65.62-4.5 66.54-4 67.64-4L67.64-4Q69.09-4 70.34-4.5 71.59-5 72.24-5.55L72.24-5.55Q72.49-5.05 72.69-4.4 72.89-3.75 72.89-3.1L72.89-3.1Q72.89-2.15 72.12-1.33 71.34-0.5 69.94 0 68.54 0.5 66.69 0.5ZM77.19 0.1L77.19 0.1Q76.79 0.1 76.09 0.05 75.39 0 74.64-0.05L74.64-0.05 83.54-34.45Q83.69-35.15 85.09-35.15L85.09-35.15Q85.59-35.15 86.12-35.1 86.64-35.05 86.99-35L86.99-35 95.94-0.75Q96.04-0.35 95.72-0.13 95.39 0.1 94.19 0.1L94.19 0.1Q93.74 0.1 93.17 0.08 92.59 0.05 91.79 0L91.79 0 87.09-19.7Q86.69-21.4 86.34-23.15 85.99-24.9 85.72-26.53 85.44-28.15 85.34-29.35L85.34-29.35Q85.24-28.15 84.97-26.53 84.69-24.9 84.34-23.15 83.99-21.4 83.54-19.7L83.54-19.7 79.09-0.7Q78.99-0.3 78.69-0.1 78.39 0.1 77.19 0.1ZM91.74-8.9L79.79-8.9 79.79-12.6 91.74-12.6 91.74-8.9ZM104.24-14.2L99.79-14.2Q99.04-14.2 98.99-14.45 98.94-14.7 98.94-15.3L98.94-15.3 98.94-34.05Q98.94-34.2 98.96-34.6 98.99-35 99.54-35L99.54-35 104.19-35Q107.34-35 109.39-33.98 111.44-32.95 112.41-30.78 113.39-28.6 113.39-25.1L113.39-25.1Q113.39-22 112.66-19.93 111.94-17.85 110.66-16.6 109.39-15.35 107.74-14.78 106.09-14.2 104.24-14.2L104.24-14.2ZM98.39 0L98.39 0 98.39-34.2Q98.39-34.2 98.51-34.6 98.64-35 99.24-35L99.24-35 101.64-35Q102.24-35 102.34-34.6 102.44-34.2 102.44-34.2L102.44-34.2 102.44-0.8Q102.44-0.4 102.26-0.25 102.09-0.1 101.24-0.05 100.39 0 98.39 0ZM111.69 0.1L111.69 0.1Q111.24 0.1 110.61 0.08 109.99 0.05 109.29 0L109.29 0Q109.04-4.3 108.26-7.23 107.49-10.15 106.61-11.88 105.74-13.6 105.09-14.35 104.44-15.1 104.44-15.1L104.44-15.1Q104.44-15.1 104.34-15.4 104.24-15.7 104.74-16L104.74-16 106.94-17.2Q107.54-17.2 107.79-16.75L107.79-16.75Q107.79-16.75 108.59-15.85 109.39-14.95 110.49-13.03 111.59-11.1 112.54-8.1 113.49-5.1 113.74-0.9L113.74-0.9Q113.74-0.35 113.44-0.13 113.14 0.1 111.69 0.1ZM102.34-31.45L102.34-17.95 104.64-17.95Q106.04-17.95 106.96-18.68 107.89-19.4 108.39-21.03 108.89-22.65 108.89-25.3L108.89-25.3Q108.89-27.2 108.54-28.6 108.19-30 107.31-30.73 106.44-31.45 104.94-31.45L104.94-31.45 102.34-31.45ZM122.69 0.5L122.69 0.5Q119.24 0.5 117.66-0.48 116.09-1.45 116.09-2.5L116.09-2.5Q116.09-3.1 116.34-3.93 116.59-4.75 117.14-5.4L117.14-5.4Q117.94-4.65 119.21-4.15 120.49-3.65 122.29-3.65L122.29-3.65Q124.94-3.65 126.06-5.05 127.19-6.45 127.19-8.75L127.19-8.75Q127.19-10.45 126.56-11.9 125.94-13.35 124.29-15.25L124.29-15.25 119.29-21.1Q117.59-23.2 116.86-24.88 116.14-26.55 116.14-28.35L116.14-28.35Q116.14-31.5 118.36-33.5 120.59-35.5 124.74-35.5L124.74-35.5Q128.28-35.5 129.78-34.77 131.28-34.05 131.28-33L131.28-33Q131.28-32.5 131.03-31.88 130.78-31.25 130.28-30.7L130.28-30.7Q129.78-31.05 128.46-31.48 127.14-31.9 125.39-31.9L125.39-31.9Q123.14-31.9 121.81-31 120.49-30.1 120.49-28.45L120.49-28.45Q120.49-27.1 121.11-25.98 121.74-24.85 122.84-23.5L122.84-23.5 128.24-17.35Q130.19-15.05 130.89-13.15 131.59-11.25 131.59-8.9L131.59-8.9Q131.59-6.4 130.76-4.25 129.94-2.1 128.01-0.8 126.09 0.5 122.69 0.5Z" opacity="1" transform="matrix(1,0,0,1,0,0)" fill="#010c80" class="wordmark-text-0" data-fill-palette-color="primary" id="text-0"></path></svg></g></svg></g></svg></g></svg></g><g><svg viewBox="0 0 366.64704 294.882181651299" height="294.882181651299" width="366.64704"><g><svg xmlns="http://www.w3.org/2000/svg" xmlns:xlink="http://www.w3.org/1999/xlink" version="1.1" x="0" y="0" viewBox="0 9.78600025177002 100.0003433227539 80.42699432373047" enable-background="new 0 0 100 100" xml:space="preserve" width="366.64704" height="294.882181651299" class="icon-icon-0" data-fill-palette-color="accent" id="icon-0"><path d="M49.942 52.994c13.552-0.488 27.103-0.977 40.653-1.465-2.527-4.177-3.159-7.831-7.989-8.461-7.229-0.94-14.458-1.883-21.688-2.826-14.023-1.827-28.05-3.654-42.075-5.48C20.101 36.792 39.724 53.361 49.942 52.994z" fill="#77d4fc" data-fill-palette-color="accent"></path><path d="M0 9.786c4.391 7.257 26.615 23.072 32.953 23.886 17.33 2.231 34.657 4.46 51.986 6.688-3.393-5.607-4.18-9.35-10.312-10.959-8.904-2.341-17.812-4.683-26.717-7.023C31.94 18.182 15.97 13.984 0 9.786z" fill="#77d4fc" data-fill-palette-color="accent"></path><path d="M63.108 66.207c10.413-2.219 20.826-4.439 31.241-6.66-2.028-3.346-2.034-5.359-5.827-5.189-6.158 0.273-12.314 0.549-18.471 0.822-11.343 0.506-22.686 1.014-34.028 1.518C37.298 58.064 54.94 67.947 63.108 66.207z" fill="#77d4fc" data-fill-palette-color="accent"></path><path d="M87.682 90.213c5.725-3.719 7.262-7.721 10.519-13.807 3.651-6.824 1.257-7.844-2.821-14.596-0.417-0.688-5.842 0.232-6.453 0.904-0.745 0.818-0.248 5.455-0.294 6.496C88.315 76.211 87.998 83.213 87.682 90.213z" fill="#77d4fc" data-fill-palette-color="accent"></path><path d="M86.35 63.447c-3.795 0.809-8.604 0.191-9.572 4.229-1.373 5.736-2.746 11.475-4.12 17.211C81.904 82.678 86.028 71.582 86.35 63.447z" fill="#77d4fc" data-fill-palette-color="accent"></path><path d="M74.666 66.121c-9.148 1.953-8.956 4.611-12.879 13.18C68.007 78.711 73.811 71.941 74.666 66.121z" fill="#77d4fc" data-fill-palette-color="accent"></path></svg></g></svg></g></svg></g><defs></defs></svg><rect width="395.52" height="147.98473839798112" fill="none" stroke="none" visibility="hidden"></rect></g></svg></g></svg>